<?xml version="1.0" encoding="utf-8"?>
<!-- Generator: Adobe Illustrator 18.0.0, SVG Export Plug-In . SVG Version: 6.00 Build 0)  -->
<!DOCTYPE svg PUBLIC "-//W3C//DTD SVG 1.1//EN" "http://www.w3.org/Graphics/SVG/1.1/DTD/svg11.dtd">
<svg version="1.1" id="Layer_1" xmlns="http://www.w3.org/2000/svg" xmlns:xlink="http://www.w3.org/1999/xlink" x="0px" y="0px"
	 viewBox="119.5 328.5 800 40" enable-background="new 119.5 328.5 800 40" xml:space="preserve">
<path id="yarn_strand" fill="none" stroke="#000000" stroke-width="3" stroke-linecap="round" stroke-linejoin="round" stroke-miterlimit="10" d="
	M122,360.1c5.8-0.1,11.7-1.7,16.6-4.7c0.1,2.8,0.3,5.7,0.6,8.5c8.4-5.7,16.9-11.1,25.6-16.5c0.3,8.4,11.7,14.1,18.6,9.4
	c2.6-1.7,4.6-4.6,7.5-5.7c6-2.3,11.8,3.1,18.1,4.6c11.1,2.4,21.5-8.7,32.8-7.3c4.8,0.6,9.1,3.4,13.8,5.1c21.9,7.8,43.8-11.7,67-13.7
	c19.2-1.6,37.7,9.1,57,9.1c25.7,0,50.5-18.9,75.4-12.4c-0.3,5.3,32.4,7.8,32.1,12.9c18.1,2.1,37.7,3.6,53.9-4.4
	c5.3-2.6,10.1-6.1,15.8-8.1c4.7-1.6,9.8-1.8,14.8-2.1c21.6-1.3,44.1-2.3,64.3,5.4c6.3,2.4,12.2,5.5,18.5,7.8
	c47.6,17.3,104.9-18.3,149.9,5.1c3.6,1.8,7,4.1,10.9,4.8c7.7,1.4,14.9-3.3,21.8-6.8c24-12.5,53.6-14.2,78.9-4.6"/>
</svg>
