<?xml version="1.0" encoding="utf-8"?>
<!-- Generator: Adobe Illustrator 18.0.0, SVG Export Plug-In . SVG Version: 6.00 Build 0)  -->
<!DOCTYPE svg PUBLIC "-//W3C//DTD SVG 1.1//EN" "http://www.w3.org/Graphics/SVG/1.1/DTD/svg11.dtd">
<svg version="1.1" id="Layer_1" xmlns="http://www.w3.org/2000/svg" xmlns:xlink="http://www.w3.org/1999/xlink" x="0px" y="0px"
	 viewBox="0 0 1039 697" enable-background="new 0 0 1039 697" xml:space="preserve">
<path fill="none" d="M500.3,1.9c-3.8,0.7-7.7,1.4-11.3,1.9C492.8,4.2,496.7,4,500.3,1.9z"/>
<path fill="none" d="M172.9,376.7c0.7,3.1,1.2,6.1,1.9,9.2C175,382.8,175,379.7,172.9,376.7z"/>
<path fill="none" d="M866.4,299.7c-0.5-2.3-1.2-4.5-1.7-6.6C864.7,295.4,864.7,297.6,866.4,299.7z"/>
<path d="M864.7,292.9c-4-15.5-7.8-31-12.2-46.5c-24.2-84-76-146.9-149.9-192.4C653.1,23.5,599.1,7.1,540.8,5.2
	c-1.7,0-3.5-2.1-5.2-3.3c-11.7,0-23.5,0-35.2,0C496.7,4,492.8,4,489,3.8c-28.2,4.9-56.8,8.7-84.2,18.6
	c-46.2,16.9-86.3,42.3-122.7,75.1c-59.6,53.7-89.4,122.5-105.6,198.6c-1.7,8,4,17.3-3.7,24.4c0,18.6,0,37.3,0,56.1
	c2.1,3,2.1,6.1,1.9,9.2c6.1,30.5,10.5,61.3,22.8,90.1c21.3,49.7,50.2,93.6,90.8,130.7c24.4,22.3,51.8,40.3,79.5,55.9
	c31.7,17.8,69.4,24.6,106.1,29.3c4.2,0.5,9.6-2.8,12.2,3.5c22.3,0,44.6,0,66.9,0c32.6-8,65.7-13.8,97.2-27
	c72.7-30.8,127-80.9,168.3-147.2c25.1-40.4,36.4-85.4,47.7-130.5c0-30.3,0-60.6,0-91.1C864.7,297.6,864.7,295.4,864.7,292.9z
	 M700.2,72c18.8,12.5,4.9,29.6,1.7,41.8c-17.6,68.5-58.4,125.3-97.9,182.6c-4.9,7-9.6,3.8-15.9,1.7
	C475.8,261.2,397.5,164.3,363.5,56.8C479.4,0.5,591.5-0.3,700.2,72z M306.7,578.3c-55.6-50.7-90.4-112.6-104.6-185.9
	c-1.4-7.3-0.9-15-1.4-22.7c-8.5-36.6-0.3-71.8,8-107.9c23.3,96.4,90.4,145.5,180.7,169.9c4.9,1.4,11.3,4,15.5-2.4l0,0l0,0
	c-42.5-22-87.5-40.9-123.2-73.4c-25.4-23.2-38.5-55.8-54.4-86.3c-13.9-27-5.6-42,5.1-72c5.4-17.6,15.3-32.6,27.4-47
	C287.1,299.5,421.7,365.1,543.2,372c-17.6-6.4-35.5-12.9-53.5-19.5l0,0c-52.8-16.7-103.7-38.2-144.1-76.3
	c-37.8-35.7-65.5-80.9-70-132.6c-1-11.8,2.1-16.6,27.4-40.4c13.4-16.9,31.5-27.7,48.8-38C389.5,180,456.8,264.7,575.4,304.6
	c29.3,9.8,40.8-4.2,54-20.4c40.1-48.3,71.4-101.4,87.5-162.9c2.8-10.5-4.9-23.7,8.4-32.4c20.6,16.6,38.5,35.5,53.7,56.5
	c6.4,8.9-1.6,21.1-4.9,30.3c-12.4,34.3-24.4,69-41.5,101.6c0.3-0.5,0.7-0.9,1-1.2c-19,42.3-69.4,116.1-99.3,150.7
	c-71.1,82.6-166.1,127.6-265.2,166.9C340.9,605,325.2,595.2,306.7,578.3z M355.2,612.3c42.5-12.5,82.1-26,120.2-43.2l0,0
	c58-29.8,112.9-64.1,157.5-112.6c73.4-79.6,125.5-170.9,152.6-275.8c1.4-5.4,3-10.8,5.1-18.5c17.8,26,31.7,51.6,37.5,81
	c8.4,25.6-3,49.7-8.4,73.2c-18.1,80-50.7,153-112.7,210.3c-51.8,47.9-115.9,70.7-181.2,91.5c-18.5,5.9-38.7,7.8-56.1,15.9
	C426.8,654.1,392.8,635,355.2,612.3z M781.2,534.8c-78.4,100.7-185.4,134.7-312.4,118.5C666.4,613.7,805.1,513,841,303.9
	C852,389.3,833.5,467.7,781.2,534.8z"/>
<path fill="#ADADAD" d="M452.2,509.2c12.2,2.1,23.9,0.3,35.7-5.2c79.5-37.5,141.1-95.7,195.9-162.6c8-9.9,18.1-27.4,48.8-63.9
	c17.1-32.4,29.1-67.1,41.5-101.6c3.3-9.2,11.3-21.4,4.9-30.3c-15.3-20.9-33.1-39.9-53.7-56.5c-13.2,8.7-5.6,22-8.4,32.4
	c-16.2,61.3-47.6,114.5-87.5,162.9c-13.4,16.2-24.9,30.1-54,20.4C456.8,264.7,389.5,180,351.7,65.3c-17.3,10.1-35.4,20.9-48.8,38
	c-2.6,67.8,26.8,121.8,70.7,171.1c27.4,30.8,61,49.8,97.8,65.5c6.8,3,14.6,5.1,18.3,12.7l0,0l0,0c17.9,6.4,35.9,13.1,53.5,19.5
	c-121.5-7-256.1-72.5-283.3-221.3c-12.2,14.6-22,29.4-27.4,47c6.8,20.2,14.1,40.4,20.2,60.8c16.7,55.8,61.5,88.3,102.1,124.9
	c21.1,19,46.5,29.4,70.2,45.8c-6.6,0-13.2,0-19.9,0l0,0c-4.4,6.4-10.6,3.8-15.5,2.4c-90.3-24.6-157.3-73.7-180.7-169.9
	c-8.5,35.9-16.6,71.3-8,107.9c35.5,33.6,71.1,67.3,115.9,89.4C360.1,480.8,404,501,452.2,509.2z"/>
<path fill="#ADADAD" d="M588.2,298c6.3,2.1,11,5.2,15.9-1.7c39.6-57.3,80.3-114.1,97.9-182.6c3.1-12.2,17.1-29.3-1.7-41.8
	C591.5-0.3,479.4,0.5,363.5,56.8C397.5,164.3,475.8,261.2,588.2,298z"/>
<path fill="#6B6B6B" d="M634.5,426.9c30-34.8,80.3-108.6,99.3-150.7c-0.3,0.5-0.7,0.9-1,1.2c-30.7,36.6-40.8,54-48.8,63.9
	c-54.7,66.9-116.6,125.1-195.9,162.6c-11.8,5.6-23.5,7.3-35.7,5.2c-48.4-8-92.4-28.4-135.7-50c-44.6-22.1-80.2-55.8-115.9-89.4
	c0.3,7.5-0.2,15.3,1.4,22.7c14.1,73.5,49.1,135.4,104.5,185.9c18.5,16.9,34.3,26.7,62.7,15.3C468.6,554.5,563.4,509.5,634.5,426.9z"
	/>
<path fill="#6B6B6B" d="M525.8,618.2c65.3-20.7,129.5-43.6,181.2-91.5c62-57.3,94.6-130.3,112.7-210.3c5.4-23.5,16.6-47.6,8.4-73.2
	c-15.9,84.3-57.3,151.4-125.5,206.1c-59.8,47.9-127,79.6-195.3,110.8c-9.9,4.5-21.3,6.1-31.9,8.9l0,0l0,0
	c-38.2,17.3-77.7,30.5-120.2,43.2c37.6,22.7,71.6,41.8,114.5,21.8C487.1,626.1,507.3,624.2,525.8,618.2z"/>
<path fill="#ADADAD" d="M507.3,560.2c68.3-31,135.6-62.7,195.3-110.8c68.1-54.7,109.6-121.8,125.5-206.1
	c-5.6-29.6-19.7-55.1-37.5-81c-2.1,7.7-3.7,13.1-5.1,18.5c-27.2,104.9-79.3,196.4-152.6,275.8c-44.6,48.4-99.3,82.8-157.5,112.6l0,0
	C486,566.3,497.4,564.7,507.3,560.2z"/>
<path fill="#6B6B6B" d="M468.8,653.3c127,16.2,234-17.8,312.4-118.5c52.3-67.1,70.7-145.5,59.8-230.9
	C805.1,513.2,666.4,613.7,468.8,653.3z"/>
<path fill="#6B6B6B" d="M354.8,383.7c-40.6-36.6-85.2-69.2-102.1-124.9c-6.1-20.4-13.4-40.6-20.2-60.8c-10.6,30-19,45-5.1,72
	c15.9,30.5,28.9,63.1,54.4,86.3c35.5,32.4,80.5,51.4,123.2,73.4l0,0c6.6,0,13.2,0,19.9,0C401.4,413.1,375.9,402.7,354.8,383.7z"/>
<path fill="#6B6B6B" d="M471.4,340c-36.8-15.7-70.4-34.9-97.8-65.5c-44.1-49.3-73.4-103.3-70.7-171.1
	c-25.3,23.7-28.4,28.4-27.4,40.3c4.5,51.8,32.2,96.9,70,132.6c40.4,38.3,91.3,59.8,144.1,76.3l0,0C486,345,478.4,342.7,471.4,340z"
	/>
</svg>
